<?xml version="1.0"?>
<svg width="176" height="32" xmlns="http://www.w3.org/2000/svg" xmlns:svg="http://www.w3.org/2000/svg">
 <defs>
  <filter color-interpolation-filters="sRGB" filterUnits="userSpaceOnUse" height="20.53" id="filter0_d_506_10589" width="5.37" x="7.42" y="6.24">
   <feFlood flood-opacity="0" result="BackgroundImageFix"/>
   <feColorMatrix in="SourceAlpha" result="hardAlpha" type="matrix" values="0 0 0 0 0 0 0 0 0 0 0 0 0 0 0 0 0 0 127 0"/>
   <feOffset dy="0.5"/>
   <feGaussianBlur stdDeviation="0.5"/>
   <feComposite in2="hardAlpha" operator="out"/>
   <feColorMatrix type="matrix" values="0 0 0 0 0 0 0 0 0 0 0 0 0 0 0 0 0 0 0.12 0"/>
   <feBlend in2="BackgroundImageFix"/>
   <feBlend in="SourceGraphic" in2="effect1_dropShadow_506_10589"/>
  </filter>
  <filter color-interpolation-filters="sRGB" filterUnits="userSpaceOnUse" height="13.79" id="filter1_d_506_10589" width="5.37" x="13.74" y="12.97">
   <feFlood flood-opacity="0" result="BackgroundImageFix"/>
   <feColorMatrix in="SourceAlpha" result="hardAlpha" type="matrix" values="0 0 0 0 0 0 0 0 0 0 0 0 0 0 0 0 0 0 127 0"/>
   <feOffset dy="0.5"/>
   <feGaussianBlur stdDeviation="0.5"/>
   <feComposite in2="hardAlpha" operator="out"/>
   <feColorMatrix type="matrix" values="0 0 0 0 0 0 0 0 0 0 0 0 0 0 0 0 0 0 0.12 0"/>
   <feBlend in2="BackgroundImageFix"/>
   <feBlend in="SourceGraphic" in2="effect1_dropShadow_506_10589"/>
  </filter>
  <filter color-interpolation-filters="sRGB" filterUnits="userSpaceOnUse" height="18" id="filter2_d_506_10589" width="5.37" x="20.05" y="8.76">
   <feFlood flood-opacity="0" result="BackgroundImageFix"/>
   <feColorMatrix in="SourceAlpha" result="hardAlpha" type="matrix" values="0 0 0 0 0 0 0 0 0 0 0 0 0 0 0 0 0 0 127 0"/>
   <feOffset dy="0.5"/>
   <feGaussianBlur stdDeviation="0.5"/>
   <feComposite in2="hardAlpha" operator="out"/>
   <feColorMatrix type="matrix" values="0 0 0 0 0 0 0 0 0 0 0 0 0 0 0 0 0 0 0.12 0"/>
   <feBlend in2="BackgroundImageFix"/>
   <feBlend in="SourceGraphic" in2="effect1_dropShadow_506_10589"/>
  </filter>
 </defs>
 <g class="layer">
  <title>Layer 1</title>
  <path d="m0,8.42c0,-4.65 3.77,-8.42 8.42,-8.42l15.16,0c4.65,0 8.42,3.77 8.42,8.42l0,15.16c0,4.65 -3.77,8.42 -8.42,8.42l-15.16,0c-4.65,0 -8.42,-3.77 -8.42,-8.42l0,-15.16z" fill="#3C50E0" id="svg_10"/>
  <g filter="url(#filter0_d_506_10589)" id="svg_11">
   <path d="m8.42,8.42c0,-0.93 0.76,-1.68 1.69,-1.68l0,0c0.93,0 1.68,0.75 1.68,1.68l0,15.16c0,0.93 -0.75,1.68 -1.68,1.68l0,0c-0.93,0 -1.69,-0.75 -1.69,-1.68l0,-15.16z" fill="white" id="svg_12"/>
  </g>
  <g filter="url(#filter1_d_506_10589)" id="svg_13" opacity="0.9">
   <path d="m14.74,15.16c0,-0.93 0.75,-1.69 1.68,-1.69l0,0c0.93,0 1.69,0.76 1.69,1.69l0,8.42c0,0.93 -0.76,1.68 -1.69,1.68l0,0c-0.93,0 -1.68,-0.75 -1.68,-1.68l0,-8.42z" fill="white" id="svg_14"/>
  </g>
  <g filter="url(#filter2_d_506_10589)" id="svg_15" opacity="0.7">
   <path d="m21.05,10.42c0,-0.64 0.76,-1.16 1.69,-1.16l0,0c0.93,0 1.68,0.52 1.68,1.16l0,8.68c0,0.64 -0.75,1.16 -1.68,1.16l0,0c-0.93,0 -1.69,-0.52 -1.69,-1.16l0,-8.68z" fill="white" id="svg_16"/>
  </g>
  <text fill="#FFFFFF" font-family="Times" font-size="25" font-weight="bold" id="svg_19" letter-spacing="1" stroke-width="0" text-anchor="middle" transform="matrix(1.17548 0 0 1.20721 -7.1716 0.681844)" word-spacing="0" x="88.16" xml:space="preserve" y="19.37">caremoa</text>
  <g filter="url(#filter2_d_506_10589)" id="svg_22" opacity="0.7" transform="matrix(1 0 0 1 0 0)">
   <path d="m550.82,320.16c0,-0.64 0.76,-1.16 1.69,-1.16l0,0c0.93,0 1.68,0.52 1.68,1.16l0,8.68c0,0.64 -0.75,1.15 -1.68,1.15l0,0c-0.93,0 -1.69,-0.52 -1.69,-1.15l0,-8.68z" fill="white" id="svg_23"/>
  </g>
 </g>
</svg>